STARTFONT 2.1
FONT -FontForge-NotJamBlkltr13-Medium-R-Normal--13-120-75-75-P-84-ISO10646-1
SIZE 12 75 75
FONTBOUNDINGBOX 14 14 0 -3
COMMENT "Generated by fontforge, http://fontforge.sourceforge.net"
COMMENT "NotJam"
STARTPROPERTIES 39
FOUNDRY "FontForge"
FAMILY_NAME "NotJamBlkltr13"
WEIGHT_NAME "Medium"
SLANT "R"
SETWIDTH_NAME "Normal"
ADD_STYLE_NAME ""
PIXEL_SIZE 13
POINT_SIZE 120
RESOLUTION_X 75
RESOLUTION_Y 75
SPACING "P"
AVERAGE_WIDTH 84
CHARSET_REGISTRY "ISO10646"
CHARSET_ENCODING "1"
FONTNAME_REGISTRY ""
CHARSET_COLLECTIONS "ISO10646-1"
FONT_NAME "NotJamBlkltr13"
FACE_NAME "NotJamBlkltr13"
COPYRIGHT "NotJam"
FONT_VERSION "001.000"
FONT_ASCENT 10
FONT_DESCENT 3
UNDERLINE_POSITION -2
UNDERLINE_THICKNESS 1
X_HEIGHT 7
CAP_HEIGHT 9
RAW_ASCENT 769
RAW_DESCENT 230
NORM_SPACE 8
RELATIVE_WEIGHT 50
RELATIVE_SETWIDTH 50
SUPERSCRIPT_X 0
SUPERSCRIPT_Y 6
SUPERSCRIPT_SIZE 9
SUBSCRIPT_X 0
SUBSCRIPT_Y 1
SUBSCRIPT_SIZE 9
AVG_LOWERCASE_WIDTH 89
AVG_UPPERCASE_WIDTH 126
ENDPROPERTIES
CHARS 125
STARTCHAR space
ENCODING 32
SWIDTH 614 0
DWIDTH 8 0
BBX 1 1 0 0
BITMAP
00
ENDCHAR
STARTCHAR exclam
ENCODING 33
SWIDTH 306 0
DWIDTH 4 0
BBX 3 10 0 0
BITMAP
40
E0
E0
E0
40
40
00
40
E0
40
ENDCHAR
STARTCHAR quotedbl
ENCODING 34
SWIDTH 460 0
DWIDTH 6 0
BBX 5 4 0 6
BITMAP
D8
D8
D8
D8
ENDCHAR
STARTCHAR numbersign
ENCODING 35
SWIDTH 1076 0
DWIDTH 14 0
BBX 13 10 0 0
BITMAP
0C30
0C30
1860
7FF8
1860
30C0
FFF0
30C0
6180
6180
ENDCHAR
STARTCHAR dollar
ENCODING 36
SWIDTH 614 0
DWIDTH 8 0
BBX 7 10 0 -1
BITMAP
10
3A
7C
D0
FC
7E
16
7C
B8
10
ENDCHAR
STARTCHAR percent
ENCODING 37
SWIDTH 844 0
DWIDTH 11 0
BBX 10 10 0 0
BITMAP
60C0
A180
A300
C600
0C00
1800
30C0
6140
C140
8180
ENDCHAR
STARTCHAR ampersand
ENCODING 38
SWIDTH 844 0
DWIDTH 11 0
BBX 10 10 0 0
BITMAP
3000
5800
E800
70C0
38C0
5D00
8E00
C740
EB80
7180
ENDCHAR
STARTCHAR quotesingle
ENCODING 39
SWIDTH 230 0
DWIDTH 3 0
BBX 2 4 0 6
BITMAP
C0
C0
C0
C0
ENDCHAR
STARTCHAR parenleft
ENCODING 40
SWIDTH 383 0
DWIDTH 5 0
BBX 4 13 0 -3
BITMAP
30
60
60
C0
C0
C0
C0
C0
C0
C0
60
60
30
ENDCHAR
STARTCHAR parenright
ENCODING 41
SWIDTH 383 0
DWIDTH 5 0
BBX 4 13 0 -3
BITMAP
C0
60
60
30
30
30
30
30
30
30
60
60
C0
ENDCHAR
STARTCHAR asterisk
ENCODING 42
SWIDTH 460 0
DWIDTH 6 0
BBX 5 4 0 6
BITMAP
A8
70
20
50
ENDCHAR
STARTCHAR plus
ENCODING 43
SWIDTH 691 0
DWIDTH 9 0
BBX 8 8 0 0
BITMAP
18
18
18
FF
FF
18
18
18
ENDCHAR
STARTCHAR comma
ENCODING 44
SWIDTH 306 0
DWIDTH 4 0
BBX 3 5 0 -2
BITMAP
40
E0
60
40
80
ENDCHAR
STARTCHAR hyphen
ENCODING 45
SWIDTH 538 0
DWIDTH 7 0
BBX 6 2 0 3
BITMAP
FC
FC
ENDCHAR
STARTCHAR period
ENCODING 46
SWIDTH 306 0
DWIDTH 4 0
BBX 3 3 0 0
BITMAP
40
E0
40
ENDCHAR
STARTCHAR slash
ENCODING 47
SWIDTH 460 0
DWIDTH 6 0
BBX 5 12 0 -2
BITMAP
18
18
18
30
30
30
60
60
60
C0
C0
C0
ENDCHAR
STARTCHAR zero
ENCODING 48
SWIDTH 691 0
DWIDTH 9 0
BBX 8 10 0 0
BITMAP
1C
2E
47
C3
C3
C3
C3
E2
74
38
ENDCHAR
STARTCHAR one
ENCODING 49
SWIDTH 383 0
DWIDTH 5 0
BBX 4 10 0 0
BITMAP
60
E0
60
60
60
60
60
60
60
F0
ENDCHAR
STARTCHAR two
ENCODING 50
SWIDTH 614 0
DWIDTH 8 0
BBX 7 10 0 0
BITMAP
78
E4
C6
06
0C
18
20
40
FA
EC
ENDCHAR
STARTCHAR three
ENCODING 51
SWIDTH 691 0
DWIDTH 9 0
BBX 8 10 0 0
BITMAP
6F
BF
02
04
1E
07
03
E2
74
38
ENDCHAR
STARTCHAR four
ENCODING 52
SWIDTH 691 0
DWIDTH 9 0
BBX 8 10 0 0
BITMAP
08
1C
2C
4C
8C
FE
FF
0C
1E
0C
ENDCHAR
STARTCHAR five
ENCODING 53
SWIDTH 691 0
DWIDTH 9 0
BBX 8 10 0 0
BITMAP
7F
7F
40
80
FE
07
03
E2
74
38
ENDCHAR
STARTCHAR six
ENCODING 54
SWIDTH 614 0
DWIDTH 8 0
BBX 7 10 0 0
BITMAP
18
3C
44
C0
D8
FC
CE
E4
78
30
ENDCHAR
STARTCHAR seven
ENCODING 55
SWIDTH 614 0
DWIDTH 8 0
BBX 7 10 0 0
BITMAP
6E
BE
02
04
04
08
18
18
18
18
ENDCHAR
STARTCHAR eight
ENCODING 56
SWIDTH 614 0
DWIDTH 8 0
BBX 7 10 0 0
BITMAP
3C
4E
C6
E4
78
3C
4E
C6
E4
78
ENDCHAR
STARTCHAR nine
ENCODING 57
SWIDTH 614 0
DWIDTH 8 0
BBX 7 10 0 0
BITMAP
18
3C
4E
E6
7E
36
06
44
78
30
ENDCHAR
STARTCHAR colon
ENCODING 58
SWIDTH 306 0
DWIDTH 4 0
BBX 3 7 0 0
BITMAP
40
E0
40
00
40
E0
40
ENDCHAR
STARTCHAR semicolon
ENCODING 59
SWIDTH 306 0
DWIDTH 4 0
BBX 3 9 0 -2
BITMAP
40
E0
40
00
40
E0
60
40
80
ENDCHAR
STARTCHAR less
ENCODING 60
SWIDTH 691 0
DWIDTH 9 0
BBX 8 8 0 0
BITMAP
03
0F
3C
F0
F0
3C
0F
03
ENDCHAR
STARTCHAR equal
ENCODING 61
SWIDTH 691 0
DWIDTH 9 0
BBX 8 6 0 1
BITMAP
FF
FF
00
00
FF
FF
ENDCHAR
STARTCHAR greater
ENCODING 62
SWIDTH 691 0
DWIDTH 9 0
BBX 8 8 0 0
BITMAP
C0
F0
3C
0F
0F
3C
F0
C0
ENDCHAR
STARTCHAR question
ENCODING 63
SWIDTH 383 0
DWIDTH 5 0
BBX 4 10 0 0
BITMAP
E0
70
30
30
60
40
00
40
E0
40
ENDCHAR
STARTCHAR at
ENCODING 64
SWIDTH 1076 0
DWIDTH 14 0
BBX 13 10 0 0
BITMAP
3FE0
6030
CF58
D8D8
D8D8
D8D8
D8D8
CF70
6000
3FC0
ENDCHAR
STARTCHAR A
ENCODING 65
SWIDTH 999 0
DWIDTH 13 0
BBX 12 10 0 0
BITMAP
1FB0
3FE0
6160
4E60
0460
0FE0
1060
38E0
7F70
E660
ENDCHAR
STARTCHAR B
ENCODING 66
SWIDTH 921 0
DWIDTH 12 0
BBX 11 13 0 -3
BITMAP
6D80
BBC0
14E0
3460
34C0
7580
3440
7460
34E0
6BC0
D000
8000
4000
ENDCHAR
STARTCHAR C
ENCODING 67
SWIDTH 844 0
DWIDTH 11 0
BBX 10 10 0 0
BITMAP
0740
2F80
6C00
CC00
CC00
CC00
D800
E040
7F80
1F00
ENDCHAR
STARTCHAR D
ENCODING 68
SWIDTH 999 0
DWIDTH 13 0
BBX 12 11 0 -1
BITMAP
6DC0
BBE0
1470
3430
37F0
7430
37F0
7430
3620
6BC0
5000
ENDCHAR
STARTCHAR E
ENCODING 69
SWIDTH 844 0
DWIDTH 11 0
BBX 10 10 0 0
BITMAP
0740
2F80
6D00
CC00
CF80
CC00
D800
E040
7F80
1F00
ENDCHAR
STARTCHAR F
ENCODING 70
SWIDTH 921 0
DWIDTH 12 0
BBX 11 13 0 -3
BITMAP
01A0
03C0
07C0
0D00
0D00
1D80
2D00
0D00
0D00
0D00
0D00
6D00
BA00
ENDCHAR
STARTCHAR G
ENCODING 71
SWIDTH 921 0
DWIDTH 12 0
BBX 11 10 0 0
BITMAP
19C0
3F80
6900
CB80
CFC0
C8E0
C860
E880
7F00
1E00
ENDCHAR
STARTCHAR H
ENCODING 72
SWIDTH 999 0
DWIDTH 13 0
BBX 12 13 0 -3
BITMAP
7A00
B400
34E0
3570
7630
3430
7430
3630
6F30
DB20
0040
0060
0060
ENDCHAR
STARTCHAR I
ENCODING 73
SWIDTH 768 0
DWIDTH 10 0
BBX 9 10 0 0
BITMAP
EF80
BF00
0D00
1A00
3A00
1A00
3A00
1A00
B400
E800
ENDCHAR
STARTCHAR J
ENCODING 74
SWIDTH 921 0
DWIDTH 12 0
BBX 11 13 0 -3
BITMAP
7BE0
8FC0
C340
C680
0680
0E80
0680
0E80
0680
0E80
0680
6D00
BA00
ENDCHAR
STARTCHAR K
ENCODING 75
SWIDTH 1076 0
DWIDTH 14 0
BBX 13 10 0 0
BITMAP
7A00
B400
34E0
3570
7630
3440
7580
36C0
6F68
D9B0
ENDCHAR
STARTCHAR L
ENCODING 76
SWIDTH 921 0
DWIDTH 12 0
BBX 11 10 0 0
BITMAP
6D80
BB00
1400
3400
3400
7400
3400
7720
37C0
48C0
ENDCHAR
STARTCHAR M
ENCODING 77
SWIDTH 1152 0
DWIDTH 15 0
BBX 14 10 0 0
BITMAP
0E74
16B8
6B58
EF78
6B58
EF78
6B58
EF78
739C
2108
ENDCHAR
STARTCHAR N
ENCODING 78
SWIDTH 1152 0
DWIDTH 15 0
BBX 14 10 0 0
BITMAP
01E0
03F0
0538
0D18
1D18
0D38
1D30
0D30
6D34
B218
ENDCHAR
STARTCHAR O
ENCODING 79
SWIDTH 921 0
DWIDTH 12 0
BBX 11 10 0 0
BITMAP
1F00
3FC0
62E0
C260
C3E0
C260
C3E0
E240
7F80
1F00
ENDCHAR
STARTCHAR P
ENCODING 80
SWIDTH 1152 0
DWIDTH 15 0
BBX 14 13 0 -3
BITMAP
7260
BAB0
1B18
1AEC
1E0C
1E0C
1AEC
1B18
7BB0
BAE0
1A00
1A00
1E00
ENDCHAR
STARTCHAR Q
ENCODING 81
SWIDTH 1152 0
DWIDTH 15 0
BBX 14 12 0 -2
BITMAP
1F00
3FC0
62E0
C260
C3E0
C260
C3E0
E240
7FC0
1FE0
0074
0038
ENDCHAR
STARTCHAR R
ENCODING 82
SWIDTH 1152 0
DWIDTH 15 0
BBX 14 10 0 0
BITMAP
72C0
BB60
1A30
1E30
3A40
1EE0
1B70
1A30
7EB4
BB18
ENDCHAR
STARTCHAR S
ENCODING 83
SWIDTH 844 0
DWIDTH 11 0
BBX 10 10 0 0
BITMAP
0E40
0F80
1380
6200
7400
0B80
1180
7200
7C00
9C00
ENDCHAR
STARTCHAR T
ENCODING 84
SWIDTH 999 0
DWIDTH 13 0
BBX 12 10 0 0
BITMAP
7E10
CFE0
83C0
1B40
3340
3340
3340
3A50
1FE0
07C0
ENDCHAR
STARTCHAR U
ENCODING 85
SWIDTH 1152 0
DWIDTH 15 0
BBX 14 10 0 0
BITMAP
7D0C
CE9C
9698
36F8
6698
66F8
6698
74B8
3FDC
0F88
ENDCHAR
STARTCHAR V
ENCODING 86
SWIDTH 844 0
DWIDTH 11 0
BBX 10 10 0 0
BITMAP
6300
B580
18C0
18C0
3FC0
58C0
1FC0
1880
1D00
3600
ENDCHAR
STARTCHAR W
ENCODING 87
SWIDTH 1152 0
DWIDTH 15 0
BBX 14 10 0 0
BITMAP
C630
6B58
318C
318C
7FFC
B18C
3FFC
3188
3AD0
6C60
ENDCHAR
STARTCHAR X
ENCODING 88
SWIDTH 921 0
DWIDTH 12 0
BBX 11 10 0 0
BITMAP
3040
78E0
9960
1E00
0DC0
7600
0E00
D720
E3C0
4180
ENDCHAR
STARTCHAR Y
ENCODING 89
SWIDTH 921 0
DWIDTH 12 0
BBX 11 13 0 -3
BITMAP
6380
B7C0
1CE0
3460
37E0
7460
37E0
7460
3440
7F80
8000
CF80
7980
ENDCHAR
STARTCHAR Z
ENCODING 90
SWIDTH 691 0
DWIDTH 9 0
BBX 8 10 0 0
BITMAP
79
5F
86
0C
0E
70
30
61
FA
9E
ENDCHAR
STARTCHAR bracketleft
ENCODING 91
SWIDTH 383 0
DWIDTH 5 0
BBX 4 13 0 -3
BITMAP
F0
C0
C0
C0
C0
C0
C0
C0
C0
C0
C0
C0
F0
ENDCHAR
STARTCHAR backslash
ENCODING 92
SWIDTH 460 0
DWIDTH 6 0
BBX 5 12 0 -2
BITMAP
C0
C0
C0
60
60
60
30
30
30
18
18
18
ENDCHAR
STARTCHAR bracketright
ENCODING 93
SWIDTH 383 0
DWIDTH 5 0
BBX 4 13 0 -3
BITMAP
F0
30
30
30
30
30
30
30
30
30
30
30
F0
ENDCHAR
STARTCHAR asciicircum
ENCODING 94
SWIDTH 460 0
DWIDTH 6 0
BBX 5 2 0 8
BITMAP
70
D8
ENDCHAR
STARTCHAR underscore
ENCODING 95
SWIDTH 691 0
DWIDTH 9 0
BBX 8 2 0 0
BITMAP
FF
FF
ENDCHAR
STARTCHAR grave
ENCODING 96
SWIDTH 230 0
DWIDTH 3 0
BBX 2 4 0 6
BITMAP
C0
C0
C0
C0
ENDCHAR
STARTCHAR a
ENCODING 97
SWIDTH 614 0
DWIDTH 8 0
BBX 7 8 0 0
BITMAP
1A
7E
0C
3C
4C
CC
FE
6C
ENDCHAR
STARTCHAR b
ENCODING 98
SWIDTH 768 0
DWIDTH 10 0
BBX 9 10 0 0
BITMAP
B000
F000
6400
6E00
7700
6300
E380
7200
3C00
1800
ENDCHAR
STARTCHAR c
ENCODING 99
SWIDTH 614 0
DWIDTH 8 0
BBX 7 8 0 0
BITMAP
0C
1E
26
E0
60
72
3C
18
ENDCHAR
STARTCHAR d
ENCODING 100
SWIDTH 614 0
DWIDTH 8 0
BBX 7 10 0 0
BITMAP
E0
70
38
3C
4E
C6
C6
E4
78
30
ENDCHAR
STARTCHAR e
ENCODING 101
SWIDTH 614 0
DWIDTH 8 0
BBX 7 8 0 0
BITMAP
18
3C
4E
CC
D8
E0
76
3C
ENDCHAR
STARTCHAR f
ENCODING 102
SWIDTH 538 0
DWIDTH 7 0
BBX 6 10 0 0
BITMAP
18
3C
6C
60
F0
60
60
E8
78
30
ENDCHAR
STARTCHAR g
ENCODING 103
SWIDTH 691 0
DWIDTH 9 0
BBX 8 11 0 -3
BITMAP
18
3C
4E
C7
C6
E6
7E
13
23
7A
9C
ENDCHAR
STARTCHAR h
ENCODING 104
SWIDTH 691 0
DWIDTH 9 0
BBX 8 13 0 -3
BITMAP
B0
F0
66
6F
73
63
63
F3
63
23
06
0C
18
ENDCHAR
STARTCHAR i
ENCODING 105
SWIDTH 383 0
DWIDTH 5 0
BBX 4 10 0 0
BITMAP
60
40
20
60
F0
60
60
E0
70
20
ENDCHAR
STARTCHAR j
ENCODING 106
SWIDTH 383 0
DWIDTH 5 0
BBX 4 13 0 -3
BITMAP
60
40
20
60
F0
60
60
60
60
60
60
C0
80
ENDCHAR
STARTCHAR k
ENCODING 107
SWIDTH 768 0
DWIDTH 10 0
BBX 9 10 0 0
BITMAP
B000
F000
6600
6F00
7380
6380
6600
EC00
7680
3380
ENDCHAR
STARTCHAR l
ENCODING 108
SWIDTH 460 0
DWIDTH 6 0
BBX 5 10 0 0
BITMAP
B0
F0
60
60
60
60
60
E8
78
30
ENDCHAR
STARTCHAR m
ENCODING 109
SWIDTH 1152 0
DWIDTH 15 0
BBX 14 8 0 0
BITMAP
2630
6F78
F398
6318
6318
6318
739C
2108
ENDCHAR
STARTCHAR n
ENCODING 110
SWIDTH 768 0
DWIDTH 10 0
BBX 9 8 0 0
BITMAP
2600
6F00
F300
6300
6300
6300
7380
2100
ENDCHAR
STARTCHAR o
ENCODING 111
SWIDTH 768 0
DWIDTH 10 0
BBX 9 8 0 0
BITMAP
0C00
1E00
2700
E300
6380
7200
3C00
1800
ENDCHAR
STARTCHAR p
ENCODING 112
SWIDTH 691 0
DWIDTH 9 0
BBX 8 11 0 -3
BITMAP
2C
7E
E7
63
E3
F2
7C
78
60
70
B0
ENDCHAR
STARTCHAR q
ENCODING 113
SWIDTH 768 0
DWIDTH 10 0
BBX 9 11 0 -3
BITMAP
0C00
1E80
2780
E300
6300
7300
3F00
1B00
0300
0780
0680
ENDCHAR
STARTCHAR r
ENCODING 114
SWIDTH 691 0
DWIDTH 9 0
BBX 8 8 0 0
BITMAP
26
6F
F3
60
60
E8
78
30
ENDCHAR
STARTCHAR s
ENCODING 115
SWIDTH 614 0
DWIDTH 8 0
BBX 7 8 0 0
BITMAP
3A
7C
C8
FC
7E
26
7C
B8
ENDCHAR
STARTCHAR t
ENCODING 116
SWIDTH 460 0
DWIDTH 6 0
BBX 5 10 0 0
BITMAP
20
60
F8
F8
60
60
60
E8
78
30
ENDCHAR
STARTCHAR u
ENCODING 117
SWIDTH 844 0
DWIDTH 11 0
BBX 10 8 0 0
BITMAP
2080
6180
F3C0
6180
6180
6380
75C0
3880
ENDCHAR
STARTCHAR v
ENCODING 118
SWIDTH 691 0
DWIDTH 9 0
BBX 8 9 0 0
BITMAP
40
C2
E7
6B
63
63
E3
76
38
ENDCHAR
STARTCHAR w
ENCODING 119
SWIDTH 1076 0
DWIDTH 14 0
BBX 13 9 0 0
BITMAP
6000
C000
E210
6738
6B58
6318
E318
77B0
39C0
ENDCHAR
STARTCHAR x
ENCODING 120
SWIDTH 844 0
DWIDTH 11 0
BBX 10 8 0 0
BITMAP
60C0
71C0
BA00
1C00
0E00
D740
E380
6180
ENDCHAR
STARTCHAR y
ENCODING 121
SWIDTH 691 0
DWIDTH 9 0
BBX 8 11 0 -3
BITMAP
26
63
E3
63
66
68
70
60
CC
5C
38
ENDCHAR
STARTCHAR z
ENCODING 122
SWIDTH 614 0
DWIDTH 8 0
BBX 7 11 0 -3
BITMAP
72
BE
1C
08
3C
0E
1C
70
C0
58
38
ENDCHAR
STARTCHAR braceleft
ENCODING 123
SWIDTH 383 0
DWIDTH 5 0
BBX 4 13 0 -3
BITMAP
30
40
60
70
30
60
C0
60
30
70
60
40
30
ENDCHAR
STARTCHAR bar
ENCODING 124
SWIDTH 230 0
DWIDTH 3 0
BBX 2 13 0 -3
BITMAP
C0
C0
C0
C0
C0
C0
C0
C0
C0
C0
C0
C0
C0
ENDCHAR
STARTCHAR braceright
ENCODING 125
SWIDTH 383 0
DWIDTH 5 0
BBX 4 13 0 -3
BITMAP
C0
20
60
E0
C0
60
30
60
C0
E0
60
20
C0
ENDCHAR
STARTCHAR asciitilde
ENCODING 126
SWIDTH 538 0
DWIDTH 7 0
BBX 6 2 0 3
BITMAP
74
B8
ENDCHAR
STARTCHAR uni00A0
ENCODING 160
SWIDTH 614 0
DWIDTH 8 0
BBX 1 1 0 0
BITMAP
00
ENDCHAR
STARTCHAR exclamdown
ENCODING 161
SWIDTH 306 0
DWIDTH 4 0
BBX 3 10 0 -3
BITMAP
40
E0
40
00
40
40
E0
E0
E0
40
ENDCHAR
STARTCHAR cent
ENCODING 162
SWIDTH 614 0
DWIDTH 8 0
BBX 7 12 0 -2
BITMAP
08
08
0C
1E
26
E8
68
72
3C
18
08
08
ENDCHAR
STARTCHAR sterling
ENCODING 163
SWIDTH 691 0
DWIDTH 9 0
BBX 8 10 0 0
BITMAP
0C
1E
36
30
30
7C
30
30
7D
DE
ENDCHAR
STARTCHAR currency
ENCODING 164
SWIDTH 538 0
DWIDTH 7 0
BBX 6 6 0 1
BITMAP
B4
78
CC
CC
78
B4
ENDCHAR
STARTCHAR yen
ENCODING 165
SWIDTH 921 0
DWIDTH 12 0
BBX 11 10 0 0
BITMAP
C060
C060
6080
3100
1E00
0C00
3F00
0C00
1F00
3F00
ENDCHAR
STARTCHAR brokenbar
ENCODING 166
SWIDTH 230 0
DWIDTH 3 0
BBX 2 13 0 -3
BITMAP
C0
C0
C0
C0
C0
00
00
00
C0
C0
C0
C0
C0
ENDCHAR
STARTCHAR dieresis
ENCODING 168
SWIDTH 460 0
DWIDTH 6 0
BBX 5 2 0 8
BITMAP
D8
D8
ENDCHAR
STARTCHAR logicalnot
ENCODING 172
SWIDTH 538 0
DWIDTH 7 0
BBX 6 4 0 1
BITMAP
FC
FC
04
04
ENDCHAR
STARTCHAR macron
ENCODING 175
SWIDTH 538 0
DWIDTH 7 0
BBX 6 2 0 8
BITMAP
FC
FC
ENDCHAR
STARTCHAR degree
ENCODING 176
SWIDTH 306 0
DWIDTH 4 0
BBX 3 3 0 6
BITMAP
40
A0
40
ENDCHAR
STARTCHAR plusminus
ENCODING 177
SWIDTH 691 0
DWIDTH 9 0
BBX 8 10 0 0
BITMAP
18
18
18
FF
FF
18
18
18
FF
FF
ENDCHAR
STARTCHAR uni00B2
ENCODING 178
SWIDTH 306 0
DWIDTH 4 0
BBX 3 4 0 6
BITMAP
E0
60
C0
E0
ENDCHAR
STARTCHAR uni00B3
ENCODING 179
SWIDTH 306 0
DWIDTH 4 0
BBX 3 4 0 6
BITMAP
E0
60
20
C0
ENDCHAR
STARTCHAR acute
ENCODING 180
SWIDTH 383 0
DWIDTH 5 0
BBX 3 4 1 6
BITMAP
40
E0
60
80
ENDCHAR
STARTCHAR uni00B5
ENCODING 181
SWIDTH 844 0
DWIDTH 11 0
BBX 10 11 0 -3
BITMAP
2080
6180
F3C0
6180
6180
6380
75C0
7880
6000
F000
6000
ENDCHAR
STARTCHAR paragraph
ENCODING 182
SWIDTH 614 0
DWIDTH 8 0
BBX 7 13 0 -3
BITMAP
7E
F4
F4
F4
74
14
14
14
14
14
14
14
14
ENDCHAR
STARTCHAR periodcentered
ENCODING 183
SWIDTH 230 0
DWIDTH 3 0
BBX 2 2 0 3
BITMAP
C0
C0
ENDCHAR
STARTCHAR cedilla
ENCODING 184
SWIDTH 383 0
DWIDTH 5 0
BBX 3 3 1 -3
BITMAP
40
20
C0
ENDCHAR
STARTCHAR uni00B9
ENCODING 185
SWIDTH 306 0
DWIDTH 4 0
BBX 3 4 0 6
BITMAP
40
C0
40
E0
ENDCHAR
STARTCHAR ordmasculine
ENCODING 186
SWIDTH 306 0
DWIDTH 4 0
BBX 3 3 0 7
BITMAP
60
A0
C0
ENDCHAR
STARTCHAR questiondown
ENCODING 191
SWIDTH 383 0
DWIDTH 5 0
BBX 4 10 0 -3
BITMAP
20
70
20
00
20
60
C0
C0
E0
70
ENDCHAR
STARTCHAR germandbls
ENCODING 223
SWIDTH 768 0
DWIDTH 10 0
BBX 9 13 0 -3
BITMAP
1C00
2E00
6600
6000
EE00
F700
6200
6700
6B80
7180
6100
2200
2180
ENDCHAR
STARTCHAR divide
ENCODING 247
SWIDTH 691 0
DWIDTH 9 0
BBX 8 8 0 0
BITMAP
18
18
00
FF
FF
00
18
18
ENDCHAR
STARTCHAR thorn
ENCODING 254
SWIDTH 768 0
DWIDTH 10 0
BBX 9 13 0 -3
BITMAP
B000
F000
6400
6E00
7700
6300
E380
7200
7C00
7800
6000
F000
B000
ENDCHAR
STARTCHAR Euro
ENCODING 8364
SWIDTH 460 0
DWIDTH 6 0
BBX 5 13 0 -3
BITMAP
30
78
E8
60
60
F8
60
F8
60
60
E8
78
30
ENDCHAR
STARTCHAR uni3000
ENCODING 12288
SWIDTH 1229 0
DWIDTH 16 0
BBX 1 1 0 0
BITMAP
00
ENDCHAR
STARTCHAR .notdef
ENCODING -1
SWIDTH 449 0
DWIDTH 6 0
BBX 5 11 1 0
BITMAP
F8
88
88
88
88
88
88
88
88
88
F8
ENDCHAR
STARTCHAR .null
ENCODING -1
SWIDTH 0 0
DWIDTH 0 0
BBX 1 1 0 0
BITMAP
00
ENDCHAR
STARTCHAR nonmarkingreturn
ENCODING -1
SWIDTH 409 0
DWIDTH 5 0
BBX 1 1 0 0
BITMAP
00
ENDCHAR
ENDFONT
